<?xml version="1.0" standalone="no"?>
<!DOCTYPE svg PUBLIC "-//W3C//DTD SVG 20010904//EN"
 "http://www.w3.org/TR/2001/REC-SVG-20010904/DTD/svg10.dtd">
<svg version="1.0" xmlns="http://www.w3.org/2000/svg"
 width="246.000000pt" height="246.000000pt" viewBox="0 0 246.000000 246.000000"
 preserveAspectRatio="xMidYMid meet">
<metadata>
Created by potrace 1.15, written by Peter Selinger 2001-2017
</metadata>
<g transform="translate(0.000000,246.000000) scale(0.100000,-0.100000)"
fill="#000000" stroke="none">
<path d="M1044 2275 c-139 -25 -363 -116 -356 -144 1 -7 -2 -10 -7 -6 -6 3
-27 -5 -48 -19 -68 -45 -86 -63 -78 -76 5 -9 4 -11 -4 -6 -15 10 -64 -21 -56
-35 4 -5 1 -8 -6 -7 -14 4 -94 -92 -153 -182 -104 -161 -155 -325 -163 -525
-11 -259 60 -489 209 -682 22 -29 44 -51 48 -48 5 3 12 0 16 -6 4 -8 3 -9 -4
-5 -7 4 -12 3 -12 -3 0 -11 70 -71 83 -71 14 0 -4 21 -27 30 l-21 9 22 0 c35
1 52 -9 46 -27 -4 -9 -10 -19 -14 -22 -4 -3 3 -12 15 -21 21 -16 22 -16 23 5
0 11 -1 15 -4 8 -3 -6 -9 -9 -14 -6 -6 3 -5 11 2 20 15 18 -6 64 -29 64 -9 0
-12 3 -9 7 4 3 23 -2 43 -13 l36 -19 18 23 c11 13 29 22 46 22 15 0 36 8 46
17 16 15 21 15 28 3 7 -12 13 -11 33 8 25 23 55 34 70 25 5 -3 0 -11 -10 -19
-17 -13 -17 -14 1 -7 11 4 17 2 13 -3 -7 -12 38 -12 49 -1 5 4 0 5 -10 1 -13
-5 -17 -4 -13 3 8 13 -57 65 -68 55 -5 -4 -5 -2 -2 4 4 6 -3 20 -16 30 -15 13
-18 14 -9 3 10 -14 10 -18 -1 -22 -10 -4 -13 2 -11 21 2 16 -6 37 -21 54 -133
158 -166 444 -70 617 14 24 22 48 18 54 -3 5 -2 7 4 4 5 -3 28 14 51 39 49 51
72 57 72 17 0 -69 73 -248 114 -283 14 -11 16 4 16 154 0 112 5 192 16 244 15
78 57 180 94 233 12 16 18 34 14 41 -4 7 -4 10 1 6 4 -4 31 13 59 37 47 42
171 115 194 115 7 0 11 -58 11 -159 2 -167 10 -240 35 -316 19 -54 52 -122 75
-151 15 -20 16 -19 18 26 4 99 74 200 168 245 30 14 59 25 64 25 6 0 11 -19
11 -42 0 -67 25 -157 79 -285 56 -135 74 -213 66 -298 -3 -33 -2 -54 1 -47 3
6 23 12 45 12 21 0 39 5 39 10 0 6 8 10 17 10 9 0 25 8 35 17 16 14 21 15 28
3 6 -10 15 -8 41 14 19 17 35 24 37 17 6 -18 31 -13 44 9 8 13 24 20 44 20 17
0 37 7 44 15 7 9 19 14 27 11 9 -4 13 4 14 27 1 22 5 11 13 -33 l12 -65 9 80
c14 145 -10 342 -59 465 -37 94 -68 150 -78 144 -7 -4 -8 -3 -4 5 12 19 -77
145 -165 231 -109 107 -237 195 -272 185 -15 -4 -18 -3 -9 3 9 6 -5 17 -49 37
-170 76 -416 105 -605 70z"/>
</g>
</svg>
